<svg width="450" height="450" viewBox="0 0 450 450" fill="none" xmlns="http://www.w3.org/2000/svg">
<mask id="mask0_1_52" style="mask-type:alpha" maskUnits="userSpaceOnUse" x="0" y="0" width="450" height="450">
<circle cx="225" cy="225" r="225" fill="#D9D9D9"/>
</mask>
<g mask="url(#mask0_1_52)">
<rect x="-27" y="-8" width="525" height="475" fill="#8BF9FF"/>
<path d="M306.561 205.266L307.25 205.633L308.005 205.436L396.577 182.308L473 305.569V419.5H-23V325.982L124.07 212.359L146.866 244.653L148.755 247.328L150.272 244.427L200.338 148.712L306.561 205.266Z" fill="#565656" stroke="black" stroke-width="4"/>
<path d="M421.782 223.089L473 350.387V464.5H-23V370.506L96.1416 150.854L146.621 289.186L146.833 289.767L147.336 290.126L224.836 345.626L226.547 346.852L227.684 345.08L353.289 149.253L421.782 223.089Z" fill="#9F9F9F" stroke="black" stroke-width="4"/>
<path d="M339.681 277.003L341.062 278.216L342.386 276.941L405.831 215.936L473 297.22V465H-23V317.063L32.166 227.055L79.9004 290.7L80.6611 291.715L81.9033 291.459L149.903 277.459L150.64 277.308L151.095 276.708L226.296 177.422L339.681 277.003Z" fill="#D1D1D1" stroke="black" stroke-width="4"/>
<path d="M473 298.649V511H-23V318.248L110.915 252.768L232.989 324.226L234.204 324.938L235.283 324.034L350.706 227.435L473 298.649Z" fill="#EEEEEE" stroke="black" stroke-width="4"/>
<path d="M109.135 288.746C130.549 281.79 159.615 275.108 190.365 276.098C221.09 277.086 236.907 283.738 250.003 291.797C263.094 299.853 274.169 309.881 294.479 316.973C300.892 319.212 307.833 320.397 314.956 320.82C328.615 321.631 342.44 321.759 356.219 321.857C370.014 321.956 383.759 322.027 397.34 322.718C424.074 324.078 450.003 327.84 474 338.853V551H-23V358.23L74.167 302.838C74.1914 302.825 74.2272 302.807 74.2734 302.783C74.3748 302.731 74.5283 302.652 74.7324 302.549C75.1414 302.342 75.7542 302.037 76.5576 301.647C78.1646 300.869 80.5369 299.755 83.5801 298.423C89.6677 295.758 98.4361 292.221 109.135 288.746Z" fill="#22931F" stroke="black" stroke-width="4"/>
<rect x="198.5" y="351.5" width="3" height="28" fill="#F1EEEE" stroke="black"/>
<rect x="238.5" y="360.5" width="3" height="21" fill="#F1EEEE" stroke="black"/>
<path d="M185.232 327.332C186.613 323.756 190.354 321.682 194.117 322.402L197.378 323.279C205.738 325.527 214.418 326.343 223.05 325.693L226.019 325.47C228.838 325.257 231.671 325.318 234.479 325.65L240.078 326.312C241.883 326.526 243.632 327.079 245.232 327.943C248.722 329.829 251.28 333.071 252.303 336.903L252.559 337.859C252.934 339.264 253.123 340.712 253.123 342.166V349.401L252.289 356.311C252.13 357.631 251.763 358.918 251.201 360.123L249.889 362.941C249.313 364.177 248.269 365.133 246.987 365.598C246.284 365.852 245.534 365.951 244.789 365.885L234.775 364.999C232.257 364.776 229.72 364.847 227.218 365.21C223.682 365.723 220.083 365.613 216.585 364.886L210.077 363.533C207.191 362.933 204.214 362.927 201.325 363.514L196.933 364.406C192.42 365.323 187.772 363.654 184.874 360.074C183.094 357.876 182.123 355.132 182.123 352.304V344.266L183.399 333.118C183.512 332.134 183.75 331.167 184.107 330.242L185.232 327.332Z" fill="white" stroke="black" stroke-width="2"/>
<path d="M158.952 315.5L158.528 319.74L162.143 322H169.899L175.194 319.793L171.76 315.5H158.952Z" fill="#FFDEDE" stroke="black"/>
<path d="M175.627 312H184.789C188.044 312 191.046 313.758 192.639 316.597L193.478 318.094C194.441 319.811 194.814 321.796 194.541 323.746L193.458 331.474C193.319 332.463 193.016 333.423 192.562 334.312L191.625 336.15C190.546 338.265 188.676 339.868 186.421 340.61L183.438 341.592C182.936 341.757 182.419 341.878 181.896 341.953L173.846 343.101L173.843 343.102L163.78 344.569C162.006 344.828 160.193 344.55 158.577 343.772L155.097 342.098C151.981 340.598 150 337.446 150 333.988V333.375C150 329.014 153.127 325.28 157.421 324.515L158.848 324.26C162.059 323.687 164.85 321.72 166.468 318.888L167.812 316.535C169.414 313.731 172.397 312 175.627 312Z" fill="white" stroke="black" stroke-width="2"/>
<circle cx="170" cy="319" r="1" fill="black"/>
<circle cx="179" cy="321" r="1" fill="black"/>
<path d="M158.5 329C158.5 330.933 155.433 330.5 153.5 330.5C151.567 330.5 149.5 330.933 149.5 329C149.5 327.067 152.067 325.5 154 325.5C155.933 325.5 158.5 327.067 158.5 329Z" fill="black"/>
<path d="M201.048 320.5L201.472 324.74L197.857 327H190.101L184.806 324.793L188.24 320.5H201.048Z" fill="#FFDEDE" stroke="black"/>
<path d="M150 336.5L153 334H154L155 336L159 336.5" stroke="black"/>
<line x1="153.5" y1="329" x2="153.5" y2="334" stroke="black"/>
<rect x="198" y="376" width="4" height="3" fill="black"/>
<rect x="238" y="379" width="4" height="2" fill="black"/>
</g>
</svg>
