<svg width="450" height="450" viewBox="0 0 450 450" fill="none" xmlns="http://www.w3.org/2000/svg">
<mask id="mask0_1_52" style="mask-type:alpha" maskUnits="userSpaceOnUse" x="0" y="0" width="450" height="450">
<circle cx="225" cy="225" r="225" fill="#D9D9D9"/>
</mask>
<g mask="url(#mask0_1_52)">
<rect x="-27" y="-8" width="525" height="475" fill="#8BF9FF"/>
<path d="M306.561 205.266L307.25 205.633L308.005 205.436L396.577 182.308L473 305.569V419.5H-23V325.982L124.07 212.359L146.866 244.653L148.755 247.328L150.272 244.427L200.338 148.712L306.561 205.266Z" fill="#565656" stroke="black" stroke-width="4"/>
<path d="M421.782 223.089L473 350.387V464.5H-23V370.506L96.1416 150.854L146.621 289.186L146.833 289.767L147.336 290.126L224.836 345.626L226.547 346.852L227.684 345.08L353.289 149.253L421.782 223.089Z" fill="#9F9F9F" stroke="black" stroke-width="4"/>
<path d="M339.681 277.003L341.062 278.216L342.386 276.941L405.831 215.936L473 297.22V465H-23V317.063L32.166 227.055L79.9004 290.7L80.6611 291.715L81.9033 291.459L149.903 277.459L150.64 277.308L151.095 276.708L226.296 177.422L339.681 277.003Z" fill="#D1D1D1" stroke="black" stroke-width="4"/>
<path d="M473 298.649V511H-23V318.248L110.915 252.768L232.989 324.226L234.204 324.938L235.283 324.034L350.706 227.435L473 298.649Z" fill="#EEEEEE" stroke="black" stroke-width="4"/>
<path d="M109.135 288.746C130.549 281.79 159.615 275.108 190.365 276.098C221.09 277.086 236.907 283.738 250.003 291.797C263.094 299.853 274.169 309.881 294.479 316.973C300.892 319.212 307.833 320.397 314.956 320.82C328.615 321.631 342.44 321.759 356.219 321.857C370.014 321.956 383.759 322.027 397.34 322.718C424.074 324.078 450.003 327.84 474 338.853V551H-23V358.23L74.167 302.838C74.1914 302.825 74.2272 302.807 74.2734 302.783C74.3748 302.731 74.5283 302.652 74.7324 302.549C75.1414 302.342 75.7542 302.037 76.5576 301.647C78.1646 300.869 80.5369 299.755 83.5801 298.423C89.6677 295.758 98.4361 292.221 109.135 288.746Z" fill="#22931F" stroke="black" stroke-width="4"/>
</g>
</svg>
